<?xml version="1.0" encoding="utf-8" ?>
<svg xmlns="http://www.w3.org/2000/svg" xmlns:xlink="http://www.w3.org/1999/xlink" width="45" height="45">
	<path fill="#FFDF91" d="M5.484375 42.609375L5.90625 42.609375L5.90625 45L0.703125 45L0.703125 42.609375L1.125 42.609375L1.125 35.859375L5.484375 35.859375L5.484375 42.609375ZM0.984375 26.296877L0.984375 34.59375L5.484375 34.59375L5.484375 26.296877L0.984375 26.296877ZM5.484375 25.031248L5.0625 19.406248L1.40625 19.406248L0.984375 25.031248L5.484375 25.031248ZM0.703125 35.296875C0.703125 35.4375 0.84375 35.578125 0.984375 35.578125L5.625 35.578125C5.765625 35.578125 5.90625 35.4375 5.90625 35.296875C5.90625 35.15625 5.765625 35.015625 5.625 35.015625L0.84375 35.015625C0.703125 35.015625 0.703125 35.15625 0.703125 35.296875ZM5.625 25.453125L0.84375 25.453125C0.703125 25.453125 0.5625 25.59375 0.5625 25.734377C0.5625 25.875002 0.703125 26.015627 0.84375 26.015627L5.484375 26.015627C5.625 26.015627 5.765625 25.875002 5.765625 25.734377C5.765625 25.59375 5.765625 25.453125 5.625 25.453125ZM5.203125 19.125C5.34375 19.125 5.34375 18.984375 5.34375 18.984375C5.34375 18.84375 5.203125 18.84375 5.203125 18.84375L1.265625 18.84375C1.125 18.84375 1.125 18.984375 1.125 18.984375C1.125 19.125 1.265625 19.125 1.265625 19.125L5.203125 19.125ZM0.84375 17.578125L0.421875 17.578125C0.140625 17.578125 0 17.4375 0 17.15625L0 16.734375L0.84375 16.734375L0.84375 14.34375L0.84375 13.5L0 13.5L0 12.9375C0 12.65625 0.28125 12.375 0.5625 12.375L0.703125 12.375L0.703125 11.953125L1.265625 11.953125C1.265625 11.953125 1.265625 11.953125 1.265625 10.6875C1.265625 9.84375 2.109375 9.421875 2.671875 9.28125L2.671875 8.296875L3.515625 8.296875L3.515625 9.28125C4.078125 9.421875 4.921875 9.984375 4.921875 10.6875C4.921875 11.953125 4.921875 11.953125 4.921875 11.953125L5.484375 11.953125L5.484375 12.375L5.625 12.375C5.90625 12.375 6.1875 12.65625 6.1875 12.9375L6.1875 13.5L5.625 13.5L5.625 14.34375L5.625 16.734375L6.46875 16.734375L6.46875 17.15625C6.46875 17.4375 6.328125 17.578125 6.046875 17.578125L5.625 17.578125L5.625 18C5.625 18.140625 5.484375 18.28125 5.203125 18.28125L1.265625 18.28125C0.984375 18.28125 0.84375 18.140625 0.84375 17.859375L0.84375 17.578125ZM2.390625 16.734375L4.078125 16.734375L4.078125 14.34375L2.390625 14.34375L2.390625 16.734375ZM5.203125 14.34375L4.5 14.34375L4.5 16.734375L5.34375 16.734375L5.34375 14.34375L5.203125 14.34375ZM1.265625 16.734375L2.109375 16.734375L2.109375 14.34375L1.265625 14.34375L1.265625 16.734375ZM2.8125 8.015625L3.65625 8.015625C3.65625 8.015625 4.078125 8.015625 4.078125 7.171875C4.078125 6.328125 3.234375 3.9375 3.234375 3.9375C3.234375 3.9375 2.390625 6.328125 2.390625 7.171875C2.390625 8.015625 2.8125 8.015625 2.8125 8.015625ZM43.734375 35.859375L39.234375 35.859375L39.234375 42.609375L38.8125 42.609375L38.8125 45L44.015629 45L44.015629 42.609375L43.593754 42.609375L43.593754 35.859375L43.734375 35.859375ZM39.234375 26.296877L39.234375 34.59375L43.59375 34.59375L43.59375 26.296877L39.234375 26.296877ZM43.734375 25.031248L43.312504 19.406248L39.796879 19.406248L39.375004 25.031248L43.734375 25.031248ZM43.875 35.015625L39.234375 35.015625C39.09375 35.015625 38.953125 35.15625 38.953125 35.296875C38.953125 35.437504 39.09375 35.578125 39.234375 35.578125L43.875 35.578125C44.015625 35.578125 44.15625 35.4375 44.15625 35.296875C44.15625 35.15625 44.015625 35.015625 43.875 35.015625ZM43.875 25.453125L39.234375 25.453125C39.09375 25.453125 38.953125 25.59375 38.953125 25.734377C38.953125 25.875002 39.09375 26.015627 39.234375 26.015627L43.875 26.015627C44.015625 26.015627 44.15625 25.875002 44.15625 25.734377C44.015625 25.593752 44.015625 25.453125 43.875 25.453125ZM43.453125 19.125C43.59375 19.125 43.59375 18.984375 43.59375 18.984375C43.59375 18.84375 43.453125 18.84375 43.453125 18.84375L39.515625 18.84375C39.375 18.84375 39.375 18.984375 39.375 18.984375C39.375 19.125 39.515625 19.125 39.515625 19.125L43.453125 19.125ZM43.875 14.34375L43.875 16.734375L44.71875 16.734375L44.71875 17.15625C44.71875 17.4375 44.578125 17.578125 44.296875 17.578125L43.875 17.578125L43.875 18C43.875 18.28125 43.734375 18.421875 43.453129 18.421875L39.515629 18.421875C39.234379 18.421875 39.093754 18.28125 39.093754 18L39.093754 17.578125L38.671883 17.578125C38.390629 17.578125 38.250008 17.4375 38.250008 17.15625L38.250008 16.734375L39.093758 16.734375L39.093758 14.34375L39.093758 13.5L38.250008 13.5L38.250008 12.9375C38.250008 12.65625 38.531261 12.375 38.812508 12.375L38.953133 12.375L38.953133 11.953125L39.515633 11.953125C39.515633 11.953125 39.515633 11.953125 39.515633 10.6875C39.515633 9.84375 40.359383 9.421875 40.921883 9.28125L40.921883 8.296875L41.765633 8.296875L41.765633 9.28125C42.328133 9.421875 43.171883 9.984375 43.171883 10.6875C43.171883 11.953125 43.171883 11.953125 43.171883 11.953125L43.734383 11.953125L43.734383 12.375L43.875008 12.375C44.156261 12.375 44.437508 12.65625 44.437508 12.9375L44.437508 13.5L43.593758 13.5L43.593758 14.34375L43.875 14.34375L43.875 14.34375ZM40.640625 16.734375L42.1875 16.734375L42.1875 14.34375L40.640625 14.34375L40.640625 16.734375ZM39.515625 16.734375L40.359375 16.734375L40.359375 14.34375L39.515625 14.34375L39.515625 16.734375ZM43.453125 14.34375L42.609375 14.34375L42.609375 16.734375L43.453125 16.734375L43.453125 14.34375ZM41.0625 8.015625L41.90625 8.015625C41.90625 8.015625 42.328121 8.015625 42.328121 7.171875C42.328121 6.328125 41.484371 3.9375 41.484371 3.9375C41.484371 3.9375 40.640625 6.328125 40.640625 7.171875C40.640625 8.015625 41.0625 8.015625 41.0625 8.015625ZM6.1875 45L11.8125 45L11.8125 42.609375L6.1875 42.609375L6.1875 45ZM12.234375 45L17.015627 45L17.015627 42.609375L12.234375 42.609375L12.234375 45ZM12.65625 42.1875L17.015625 42.1875L17.015625 32.625L12.65625 32.625L12.65625 42.1875ZM12.234375 35.4375L12.234375 35.015629L6.1875 35.015629L6.1875 35.4375L12.234375 35.4375ZM12.65625 32.203125L17.015625 32.203125L17.015625 31.78125L12.65625 31.78125L12.65625 32.203125ZM12.65625 25.875L17.015625 25.875L17.015625 25.453125L12.65625 25.453125L12.65625 25.875ZM12.234375 25.453125L6.1875 25.453125L6.1875 25.875L12.09375 25.875C12.234375 25.875 12.234375 25.453125 12.234375 25.453125ZM12.234375 42.1875L5.765625 42.1875L5.765625 35.859375L12.09375 35.859375C12.234375 35.859375 12.234375 42.1875 12.234375 42.1875ZM9 39.09375L8.578125 39.09375L8.578125 40.218746L9 40.218746L9 39.09375ZM9 36.984375L8.578125 36.984375L8.578125 38.109371L9 38.109371L9 36.984375ZM10.265625 39.09375L9.84375 39.09375L9.84375 40.218746L10.265625 40.218746L10.265625 39.09375L10.265625 39.09375ZM10.265625 36.984375L9.84375 36.984375L9.84375 38.109371L10.265625 38.109371L10.265625 36.984375L10.265625 36.984375ZM12.234375 34.59375L5.765625 34.59375L5.765625 26.296875L12.09375 26.296875C12.234375 26.296875 12.234375 34.59375 12.234375 34.59375ZM10.546875 28.265625C10.546875 27.421875 9.140625 27.140627 9.140625 27.140627C9.140625 27.140627 7.734375 27.5625 7.734375 28.265625C7.734375 29.109375 7.734375 31.78125 7.734375 31.78125L10.546875 31.78125C10.546875 31.921877 10.546875 29.109377 10.546875 28.265625ZM12.65625 26.296877L17.015625 26.296877L17.015625 31.500002L12.65625 31.500002L12.65625 26.296877ZM12.9375 29.812502L13.359375 29.812502L13.359375 27.843752L12.9375 27.843752L12.9375 29.812502ZM32.90625 45L38.53125 45L38.53125 42.609375L32.90625 42.609375L32.90625 45ZM27.703123 45L32.484375 45L32.484375 42.609375L27.703123 42.609375L27.703123 45ZM27.703123 42.1875L32.0625 42.1875L32.0625 32.625L27.703123 32.625L27.703123 42.1875ZM32.484375 35.4375L38.390629 35.4375L38.390629 35.015629L32.484375 35.015629L32.484375 35.4375ZM32.0625 31.921877L27.703125 31.921877L27.703125 32.34375L32.0625 32.34375L32.0625 31.921877ZM32.0625 25.453125L27.703125 25.453125L27.703125 25.875L32.0625 25.875L32.0625 25.453125ZM32.484375 25.875L38.390629 25.875L38.390629 25.453125L32.484375 25.453125L32.484375 25.875ZM38.953125 42.1875L32.625 42.1875L32.625 35.859375L38.953125 35.859375L38.953125 42.1875ZM34.875 39.09375L34.453125 39.09375L34.453125 40.218746L34.875 40.218746L34.875 39.09375ZM34.875 36.984375L34.453125 36.984375L34.453125 38.109371L34.875 38.109371L34.875 36.984375ZM36.140625 39.09375L35.71875 39.09375L35.71875 40.218746L36.140625 40.218746L36.140625 39.09375ZM36.140625 36.984375L35.71875 36.984375L35.71875 38.109371L36.140625 38.109371L36.140625 36.984375ZM38.953125 34.59375L32.625 34.59375L32.625 26.296875L38.953125 26.296875L38.953125 34.59375ZM36.84375 28.265625C36.84375 27.421875 35.4375 27.140627 35.4375 27.140627C35.4375 27.140627 34.03125 27.5625 34.03125 28.265625C34.03125 29.109375 34.03125 31.78125 34.03125 31.78125L36.84375 31.78125C36.84375 31.921877 36.84375 29.109377 36.84375 28.265625ZM32.0625 31.5L27.703125 31.5L27.703125 26.296873L32.0625 26.296873L32.0625 31.5ZM31.781252 27.843748L31.359377 27.843748L31.359377 29.812498L31.781252 29.812498L31.781252 27.843748ZM17.4375 45L18.984375 45C18.984375 45 18.984375 38.25 18.984375 36.28125C18.984375 34.3125 22.359375 33.328125 22.359375 33.328125C22.359375 33.328125 25.734375 34.3125 25.734375 36.28125C25.734375 38.249996 25.734375 45 25.734375 45L27.28125 45L27.28125 25.453125L17.296875 25.453125L17.296875 45L17.4375 45ZM13.359375 21.515625L13.78125 21.515625L13.78125 19.125L16.59375 19.125L17.4375 21.515625L17.859375 21.515625L17.859375 19.125L20.671875 19.125L24.609375 19.125L27.421875 19.125L27.421875 21.515625L27.84375 21.515625L28.6875 19.125L31.5 19.125L31.5 21.515625L31.921873 21.515625L33.046871 19.125L33.468746 19.125C33.468746 18.703125 33.046871 18.28125 32.624996 18.28125L24.609373 18.28125L20.671873 18.28125L12.65625 18.28125C12.234375 18.28125 11.8125 18.703125 11.8125 19.125L12.234375 19.125L13.359375 21.515625ZM14.625 19.546875L14.203125 19.546875L14.203125 21.9375L12.9375 21.9375L12.9375 25.171875L14.484375 25.171875L14.484375 21.09375L16.734375 21.09375L16.171875 19.546875L14.625 19.546875ZM20.109375 21.09375L21.234375 21.09375L23.765625 21.09375L24.890623 21.09375L24.890623 25.031248L28.124998 25.031248L28.124998 21.796873L26.999998 21.796873L26.999998 19.406248L25.031248 19.406248L23.765625 19.406248L21.375 19.406248L20.25 19.406248L18.140625 19.406248L18.140625 21.796873L17.015625 21.796873L17.015625 25.031248L20.25 25.031248L20.25 21.09375L20.109375 21.09375ZM22.21875 5.203125L23.0625 5.203125L23.0625 4.359375L22.21875 4.359375L22.21875 5.203125ZM22.078125 3.9375L22.921875 3.9375C22.921875 3.9375 23.343748 3.9375 23.343748 3.09375C23.343748 2.25 22.5 0 22.5 0C22.5 0 21.65625 2.390625 21.65625 3.234375C21.65625 4.078125 22.078125 3.9375 22.078125 3.9375ZM32.0625 21.9375L30.9375 21.9375L30.9375 19.546875L30.515627 19.546875L28.968752 19.546875L28.406248 21.09375L30.515623 21.09375L30.515623 25.031248L32.0625 25.031248L32.0625 21.9375L32.0625 21.9375ZM20.53125 16.3125L13.359375 16.3125L13.359375 17.859375L20.53125 17.859375L24.46875 17.859375L31.640625 17.859375L31.640625 16.3125L24.46875 16.3125L20.53125 16.3125ZM24.609375 15.890625L32.203125 15.890625L32.203125 15.46875L24.609375 15.46875L20.671875 15.46875L12.9375 15.46875L12.9375 15.890625L20.531252 15.890625L24.609375 15.890625ZM24.609375 15.1875L30.515623 15.1875L30.515623 14.34375L24.609373 14.34375L20.671873 14.34375L14.765622 14.34375L14.765622 15.1875L20.671873 15.1875L24.609375 15.1875ZM29.671877 13.921875C29.671877 9.984375 26.156252 8.296875 26.156252 8.296875L22.640627 8.296875L19.125002 8.296875C19.125002 8.296875 15.609376 9.84375 15.609376 13.921875C17.156252 13.921875 22.781252 13.921875 22.781252 13.921875C22.781252 13.921875 28.125 13.921875 29.671877 13.921875ZM25.734375 8.015625L24.1875 6.890625L22.640625 6.890625L20.953125 6.890625L19.40625 8.015625L22.640623 8.015625L25.734375 8.015625ZM23.765625 6.328125L22.921875 5.625L22.5 5.625L22.078125 5.625L21.234375 6.46875L22.359375 6.46875L23.765625 6.46875L23.765625 6.328125Z"/>
</svg>
