<?xml version="1.0" standalone="no"?>
<!DOCTYPE svg PUBLIC "-//W3C//DTD SVG 20010904//EN"
 "http://www.w3.org/TR/2001/REC-SVG-20010904/DTD/svg10.dtd">
<svg version="1.0" xmlns="http://www.w3.org/2000/svg"
 width="500.000000pt" height="500.000000pt" viewBox="0 0 500.000000 500.000000"
 preserveAspectRatio="xMidYMid meet">

<g transform="translate(0.000000,500.000000) scale(0.100000,-0.100000)"
fill="#000000" stroke="none">
<path d="M1034 4430 c-17 -4 -48 -20 -69 -36 -20 -15 -81 -49 -134 -75 -125
-60 -166 -99 -174 -168 -9 -79 2 -152 28 -181 22 -24 65 -112 65 -132 0 -5 13
-26 29 -46 15 -20 35 -55 43 -77 17 -44 48 -57 81 -33 20 15 21 9 -54 193 -77
191 -61 263 74 331 60 31 78 35 150 36 86 2 112 -7 215 -75 40 -26 127 -175
143 -244 6 -27 18 -70 25 -98 8 -27 19 -68 25 -90 6 -22 13 -46 15 -52 5 -18
30 -5 42 22 6 13 24 33 40 45 l28 21 -29 92 c-17 51 -36 106 -43 123 -7 16
-27 73 -45 125 -30 90 -34 97 -102 159 -38 36 -95 78 -126 93 -31 15 -69 35
-86 44 -38 21 -100 31 -141 23z"/>
<path d="M4211 4404 c0 -11 3 -14 6 -6 3 7 2 16 -1 19 -3 4 -6 -2 -5 -13z"/>
<path d="M3012 4324 l-34 -35 4 -127 c3 -113 6 -133 31 -186 l27 -59 -37 7
c-134 25 -162 16 -219 -69 -22 -34 -49 -61 -68 -69 -39 -16 -49 -30 -65 -84
-10 -37 -10 -47 2 -60 8 -10 17 -30 21 -46 4 -17 16 -42 27 -57 22 -32 16 -50
-28 -83 -20 -14 -27 -16 -36 -6 -9 10 -9 11 3 5 12 -7 11 -4 -2 11 -9 10 -19
40 -23 67 -4 26 -11 47 -16 47 -23 0 -109 -52 -109 -65 0 -8 -5 -15 -11 -15
-5 0 -7 -5 -3 -11 4 -8 0 -9 -15 -4 -11 3 -21 2 -21 -3 0 -5 -12 -8 -26 -6
-14 1 -23 0 -20 -3 3 -3 0 -11 -7 -17 -18 -18 -46 -26 -52 -16 -4 6 -13 5 -24
-2 -11 -7 -29 -8 -47 -3 -16 5 -33 7 -37 7 -4 -1 -20 4 -36 13 -16 8 -31 12
-34 9 -8 -8 -180 85 -214 117 -17 16 -47 36 -66 44 -19 8 -48 25 -63 37 -16
13 -36 22 -44 22 -8 -1 -21 -2 -27 -3 -23 -2 -14 -20 19 -37 17 -9 72 -49 122
-88 50 -40 113 -86 141 -102 27 -16 59 -34 70 -41 11 -7 27 -15 35 -18 8 -4
30 -14 48 -22 29 -15 47 -15 150 -5 163 17 274 30 291 34 29 6 22 -34 -18 -92
-54 -82 -84 -165 -77 -213 4 -24 1 -48 -9 -67 -20 -38 -19 -76 4 -124 23 -47
21 -58 -36 -205 -29 -76 -26 -117 14 -200 28 -56 91 -131 111 -131 8 0 12 20
12 53 0 31 6 61 15 74 9 12 20 41 25 65 52 234 51 233 114 178 31 -27 42 -31
83 -29 46 3 48 2 45 -21 -2 -14 -10 -30 -18 -36 -8 -6 -14 -24 -14 -40 0 -16
-7 -42 -15 -58 -8 -15 -15 -34 -15 -41 0 -8 -14 -17 -32 -20 -17 -4 -38 -13
-45 -19 -7 -6 -18 -16 -25 -22 -7 -6 -28 -27 -46 -47 -18 -21 -36 -37 -41 -37
-4 0 -5 -20 -1 -44 3 -24 2 -54 -3 -67 -5 -13 -9 -45 -8 -70 2 -26 -2 -50 -7
-53 -14 -8 -15 -183 -1 -191 6 -5 8 -22 4 -46 -9 -51 22 -233 47 -277 11 -20
18 -53 18 -86 0 -33 5 -56 12 -58 16 -6 18 -109 3 -128 -16 -19 -16 -120 0
-120 6 0 16 5 23 12 7 7 12 10 13 7 0 -2 2 -32 3 -66 2 -35 8 -69 14 -76 7 -8
9 -33 5 -64 -5 -49 -4 -52 25 -67 17 -9 43 -14 59 -11 36 7 46 -1 67 -54 16
-41 16 -45 -1 -73 -10 -17 -36 -40 -58 -52 -22 -11 -56 -31 -75 -43 -50 -31
-114 -38 -411 -46 -69 -2 -132 -8 -139 -12 -9 -5 -11 -4 -6 3 4 7 2 12 -3 12
-6 0 -11 -4 -11 -9 0 -6 -12 -6 -30 -1 -16 5 -30 5 -30 1 0 -4 -19 -6 -42 -3
-99 11 -242 1 -282 -20 -14 -8 -17 -7 -10 4 6 10 5 11 -7 2 -8 -6 -34 -9 -59
-8 -25 1 -50 -2 -57 -8 -10 -8 -13 -7 -13 3 0 9 -3 10 -8 4 -4 -6 -22 -11 -39
-10 -18 0 -33 -3 -33 -6 0 -4 -16 -3 -35 1 -20 4 -38 4 -41 -1 -3 -5 -10 -7
-15 -4 -5 4 -9 0 -9 -7 0 -11 -2 -11 -9 0 -5 9 -21 12 -52 8 -135 -17 -140
-19 -122 -37 16 -16 69 -7 65 11 -2 11 2 10 12 -4 10 -13 23 -17 41 -14 14 3
28 1 31 -3 8 -14 74 -11 74 4 0 8 3 8 9 -2 7 -11 21 -12 58 -7 26 4 64 8 83 9
19 1 38 7 42 12 5 7 14 6 27 -2 11 -7 23 -9 26 -4 3 5 45 9 95 9 49 0 93 3 98
6 4 2 24 1 44 -3 23 -5 40 -5 47 2 7 7 15 6 25 -2 9 -8 16 -8 20 -2 4 5 15 8
26 6 13 -2 18 0 14 7 -4 7 1 8 16 3 17 -5 21 -4 15 5 -5 9 -4 11 4 6 9 -6 9
-11 -1 -23 -12 -15 -10 -15 18 0 16 8 36 12 42 8 7 -4 33 -8 59 -10 25 -1 53
-6 62 -10 9 -4 44 -8 79 -9 66 -2 122 -20 185 -59 24 -15 37 -19 37 -11 0 9 3
8 10 -2 5 -8 17 -16 27 -17 10 -2 41 -5 68 -9 28 -3 75 -13 105 -22 32 -9 97
-16 155 -17 55 0 108 -4 117 -9 13 -6 15 -4 11 14 -4 15 2 29 21 46 14 14 33
36 42 49 9 14 23 25 30 25 17 0 19 16 3 26 -15 9 -2 54 23 73 15 12 21 32 24
71 12 180 23 251 40 271 20 23 17 29 -13 29 -14 0 -35 8 -46 18 -15 12 -18 13
-13 2 5 -8 -3 -1 -18 15 -14 17 -25 36 -26 43 0 21 -27 43 -45 36 -9 -4 -14
-9 -13 -13 32 -60 32 -60 12 -82 -22 -24 -86 -59 -109 -59 -25 0 -37 49 -36
143 1 57 -2 86 -9 82 -5 -3 -9 -30 -9 -60 1 -45 -3 -59 -25 -85 -22 -27 -26
-29 -26 -11 0 11 5 23 10 26 14 9 13 91 -2 114 -14 22 3 136 22 155 15 14 43
-22 36 -46 -2 -10 0 -18 5 -18 5 0 9 9 9 20 0 33 24 99 37 104 16 7 27 -36 20
-74 -7 -32 8 -54 44 -65 15 -5 19 -13 15 -29 -9 -37 4 -66 30 -66 19 0 24 7
30 35 3 19 3 42 0 52 -5 12 10 32 53 73 47 44 60 63 63 90 2 30 7 35 30 38 16
2 30 11 33 23 4 10 10 19 15 19 5 0 12 9 15 20 5 15 15 20 43 20 24 1 47 9 66
24 30 25 31 36 11 132 -5 23 3 54 35 130 22 54 41 100 40 102 -1 1 3 27 9 57
23 117 31 162 36 210 3 28 10 79 15 115 5 36 14 130 20 210 6 80 17 210 25
290 13 129 17 147 37 163 l22 19 -35 31 c-19 18 -50 58 -68 90 -18 31 -37 57
-42 57 -5 0 -9 11 -9 24 0 14 -5 28 -10 31 -6 4 -8 15 -5 26 4 10 0 32 -8 47
-8 18 -11 37 -6 50 5 12 4 24 -1 27 -6 4 -10 1 -10 -5 0 -6 -4 -8 -10 -5 -6 4
-7 -5 -4 -23 4 -19 -1 -46 -13 -74 -23 -50 -19 -68 19 -98 38 -29 32 -72 -13
-111 -45 -39 -64 -43 -167 -35 -48 3 -90 6 -94 6 -4 0 -5 6 -2 13 3 8 -6 18
-21 25 -35 16 -55 15 -55 -3 0 -14 12 -19 33 -16 4 0 7 -6 7 -14 0 -8 5 -15
12 -15 6 0 35 -25 63 -55 29 -30 57 -55 64 -55 6 0 11 -7 11 -15 0 -8 9 -15
20 -15 18 0 44 -38 35 -48 -4 -5 -43 18 -85 49 -19 14 -48 29 -65 33 -45 11
-112 84 -126 139 -7 25 -17 43 -22 40 -6 -4 -8 3 -5 15 4 15 0 22 -18 26 -13
3 -45 28 -71 55 -52 53 -62 92 -32 127 8 11 30 49 49 86 30 61 59 88 92 88 6
0 19 7 28 15 9 8 34 17 55 20 21 2 43 9 49 15 5 5 18 10 27 10 17 0 69 60 69
79 0 6 4 11 9 11 5 0 11 13 14 30 13 63 92 84 169 46 75 -38 127 3 78 62 -27
33 -76 50 -126 44 -39 -4 -46 -1 -76 32 -22 23 -52 42 -88 54 -51 16 -55 20
-53 46 1 16 -2 37 -7 47 -14 25 2 61 34 78 40 22 33 46 -19 65 -59 23 -76 18
-90 -24 -8 -23 -19 -36 -32 -38 -12 -2 -23 -12 -26 -23 -3 -10 -11 -19 -19
-19 -7 0 -19 -13 -26 -30 -10 -22 -19 -29 -35 -26 -12 2 -30 -1 -39 -6 -14 -6
-18 -5 -18 7 0 8 -3 15 -7 15 -5 0 -17 7 -27 15 -16 12 -17 17 -6 30 16 20 6
45 -19 45 -25 0 -31 28 -13 58 16 25 66 31 79 9 6 -10 15 -9 42 5 30 15 32 18
15 24 -29 10 -74 62 -74 85 0 17 -22 50 -32 48 -2 0 -18 -16 -36 -35z m265
-341 c-4 -3 -1 -13 6 -21 9 -13 9 -14 0 -8 -8 4 -13 2 -13 -7 0 -17 -21 -27
-53 -27 -20 0 -19 3 13 35 19 18 39 34 44 34 5 1 6 -2 3 -6z m8 -1113 c3 -5 1
-10 -4 -10 -6 0 -11 5 -11 10 0 6 2 10 4 10 3 0 8 -4 11 -10z m-97 -403 c27
-25 30 -85 8 -174 -8 -32 -18 -89 -22 -128 -7 -68 -8 -69 -15 -30 -4 22 -8 75
-8 117 -1 43 -6 108 -13 146 -17 102 -6 118 50 69z m-421 -78 c15 -29 17 -78
3 -113 -5 -14 -10 -43 -12 -65 -1 -22 -8 -43 -15 -45 -7 -3 -13 -15 -13 -26 0
-18 -19 -30 -21 -12 -11 87 -7 159 9 187 13 21 16 38 11 53 -10 26 -1 54 15
49 6 -2 17 -14 23 -28z m747 -172 c21 -27 26 -45 26 -93 1 -125 -13 -125 -46
1 -34 134 -29 157 20 92z m-637 -682 c11 -19 4 -85 -8 -85 -5 0 -9 14 -9 31 0
17 -4 28 -10 24 -5 -3 -10 -1 -10 4 0 6 4 11 10 11 5 0 7 7 4 15 -8 20 12 19
23 0z m1 -140 c0 -14 -4 -28 -9 -31 -5 -3 -7 5 -5 18 3 13 5 26 5 31 2 18 9 4
9 -18z m2 -143 c0 -83 -9 -108 -34 -99 -23 9 -21 83 4 131 10 22 17 43 13 49
-3 6 -1 7 5 3 8 -4 12 -37 12 -84z m375 -302 c15 -17 18 -37 18 -114 -1 -111
-7 -134 -36 -140 -53 -11 -95 -14 -105 -7 -17 11 -55 197 -48 236 6 30 11 34
44 38 89 9 109 7 127 -13z m-366 -249 c24 -15 -58 -87 -112 -99 -66 -14 -92
-10 -92 11 0 14 16 24 59 38 33 11 71 29 84 40 27 21 40 23 61 10z"/>
<path d="M4210 4306 c0 -7 9 -16 21 -19 20 -5 20 -5 3 14 -20 23 -24 23 -24 5z"/>
<path d="M4070 4250 c0 -27 5 -50 10 -50 6 0 10 -15 10 -34 0 -25 9 -43 33
-68 17 -19 43 -48 57 -66 14 -17 28 -32 33 -32 28 0 82 -102 91 -174 3 -27 15
-63 26 -81 11 -18 20 -50 20 -72 0 -66 30 -265 50 -324 9 -30 27 -75 39 -99
11 -24 21 -55 21 -69 0 -23 -3 -21 -29 19 -16 25 -32 61 -36 78 -4 18 -18 60
-31 92 -13 33 -24 70 -24 83 0 13 -3 27 -7 31 -5 4 -9 24 -9 44 -4 107 -14
185 -24 197 -7 8 -10 31 -8 51 3 27 0 38 -14 45 -11 6 -18 21 -18 39 0 16 -6
33 -12 37 -16 10 -48 70 -48 89 0 8 -10 14 -22 14 -13 0 -40 16 -60 36 -39 36
-58 37 -58 5 0 -10 -12 -30 -26 -44 -40 -40 -58 -124 -44 -208 10 -60 10 -70
-6 -94 -14 -22 -15 -31 -6 -46 7 -10 12 -27 12 -38 0 -21 -72 -91 -95 -91 -8
0 -19 -9 -25 -19 -13 -25 -13 -61 0 -61 6 0 10 -10 10 -21 0 -12 7 -27 16 -33
20 -15 25 -76 7 -83 -19 -8 -18 -93 2 -93 8 0 15 -4 15 -10 0 -10 36 -50 45
-50 2 0 38 -33 79 -74 l75 -74 6 -124 c7 -145 17 -193 58 -271 54 -104 111
-130 182 -84 19 12 35 25 35 28 0 4 -16 10 -35 13 -20 4 -35 12 -34 19 3 15
-9 44 -31 77 -27 42 -39 96 -29 137 8 34 6 87 -6 203 -26 244 -27 273 -6 294
l21 20 28 -27 c16 -16 34 -45 41 -67 6 -21 28 -62 48 -92 20 -29 37 -60 38
-69 0 -8 11 -26 23 -39 12 -13 19 -26 17 -30 -3 -4 2 -13 10 -20 7 -6 11 -18
8 -26 -8 -21 18 -66 34 -60 7 3 14 0 14 -7 5 -53 10 -70 27 -92 11 -14 23 -40
26 -60 8 -41 19 -50 45 -36 26 14 29 43 20 163 -12 150 -55 314 -110 418 -23
43 -24 52 -21 228 4 253 -10 366 -55 463 -29 62 -43 81 -74 98 -21 12 -42 28
-46 35 -5 6 -26 25 -48 42 -64 47 -68 52 -45 59 13 4 20 15 20 32 0 19 -4 24
-16 19 -9 -3 -20 -6 -25 -6 -5 0 -9 -7 -9 -15 0 -19 -20 -19 -48 1 -21 14 -23
14 -34 -10 -23 -51 -70 -17 -50 36 12 34 9 48 -14 48 -10 0 -14 -13 -14 -50z"/>
<path d="M3090 4105 c0 -8 6 -15 13 -15 8 0 14 7 14 15 0 8 -6 15 -14 15 -7 0
-13 -7 -13 -15z"/>
<path d="M1620 3719 c-33 -12 -49 -25 -59 -48 -10 -22 -21 -31 -38 -31 -13 0
-23 5 -23 11 0 5 -4 7 -10 4 -14 -9 -12 -21 6 -39 20 -20 34 -20 34 0 0 9 6
14 13 12 18 -7 21 -36 4 -40 -12 -2 -9 -20 14 -98 36 -119 58 -208 69 -285 10
-71 36 -224 48 -280 11 -51 130 -297 174 -361 85 -123 112 -181 199 -429 89
-255 96 -283 102 -410 9 -173 42 -282 106 -350 58 -61 68 -89 79 -226 10 -119
38 -193 82 -218 22 -12 30 -11 65 6 46 21 47 35 9 92 -18 28 -25 55 -30 121
-9 128 -47 243 -98 299 -51 55 -72 119 -81 246 -10 137 -28 214 -93 400 -91
261 -100 282 -168 401 -35 61 -64 115 -64 119 0 4 -18 34 -39 65 -98 144 -133
236 -166 445 -35 221 -47 281 -66 338 -26 76 -39 193 -27 229 14 41 7 46 -42
27z"/>
<path d="M2310 3535 c0 -8 5 -15 11 -15 5 0 8 4 5 9 -4 5 0 12 6 14 8 3 6 6
-4 6 -10 1 -18 -6 -18 -14z"/>
<path d="M2342 3499 c-7 -11 -11 -23 -9 -25 7 -7 29 24 25 36 -2 6 -9 1 -16
-11z"/>
<path d="M3227 3120 c3 -11 7 -20 9 -20 2 0 4 9 4 20 0 11 -4 20 -9 20 -5 0
-7 -9 -4 -20z"/>
<path d="M3995 3030 c-15 -7 -10 -9 23 -9 23 -1 42 4 42 9 0 12 -37 12 -65 0z"/>
<path d="M4536 2656 c-20 -9 -25 -16 -16 -21 7 -4 21 1 33 14 24 24 23 24 -17
7z"/>
<path d="M4470 2610 c-9 -6 -10 -10 -3 -10 6 0 15 5 18 10 8 12 4 12 -15 0z"/>
<path d="M2680 2516 c0 -21 20 -30 33 -17 9 9 8 14 -3 21 -21 14 -30 12 -30
-4z"/>
<path d="M2702 1198 c3 -7 13 -14 24 -15 10 -2 13 0 6 3 -6 3 -10 10 -6 15 3
5 -2 9 -11 9 -9 0 -15 -6 -13 -12z"/>
<path d="M3430 1028 c-7 -18 -14 -44 -15 -58 -1 -14 -8 -54 -15 -90 -6 -36
-14 -77 -17 -92 -3 -17 -1 -28 5 -28 6 0 14 17 18 38 4 20 10 39 14 42 7 5 70
195 70 211 0 5 -11 9 -24 9 -18 0 -27 -8 -36 -32z"/>
<path d="M3403 681 c0 -27 -4 -56 -11 -63 -8 -10 -8 -20 3 -38 26 -46 36 -73
31 -87 -7 -17 -6 -17 54 14 50 26 58 27 213 27 178 1 223 -6 391 -61 106 -35
151 -41 301 -43 77 -1 111 4 108 13 -2 4 -3 11 -3 17 0 11 -130 51 -142 44 -5
-3 -17 1 -26 9 -18 15 -31 18 -105 20 -26 1 -47 5 -47 8 0 3 -12 5 -27 4 -16
-1 -38 2 -49 6 -12 4 -52 9 -90 10 -71 2 -184 33 -184 51 0 5 -5 6 -10 3 -6
-3 -18 2 -28 11 -16 17 -16 18 1 11 9 -3 17 -2 17 3 0 9 -14 14 -32 11 -4 0
-4 7 -1 16 4 11 3 14 -5 9 -7 -4 -12 -1 -12 6 0 8 -13 15 -32 17 -18 1 -49 4
-68 7 -19 2 -60 6 -90 9 -30 2 -78 7 -106 10 l-52 6 1 -50z"/>
</g>
</svg>
